<?xml version="1.0" encoding="utf-8"?>
<!-- Generator: Adobe Illustrator 16.0.4, SVG Export Plug-In . SVG Version: 6.00 Build 0)  -->
<!DOCTYPE svg PUBLIC "-//W3C//DTD SVG 1.1//EN" "http://www.w3.org/Graphics/SVG/1.1/DTD/svg11.dtd">
<svg version="1.1" id="Layer_1" xmlns="http://www.w3.org/2000/svg" xmlns:xlink="http://www.w3.org/1999/xlink" x="0px" y="0px"
	 width="780px" height="186.996px" viewBox="0 0 780 186.996" enable-background="new 0 0 780 186.996" xml:space="preserve">
<g>
	<g>
		<path fill="#1D1D1B" d="M104.412,108.365c0,12.281-1.29,22.178-10.702,31.006c-8.414,7.892-18.694,10.648-28.968,11.531
			c-8.979,0.789-20.688-0.565-28.25-5.894c-10.416-7.511-12.417-18.636-12.417-32.818V33.961l30.546,2.552v70.884
			c0,3.811-0.151,8.952,1.843,12.359c2.289,3.523,6.855,4.786,10.706,4.615c3.429-0.158,7.707-1.471,10.272-4.162
			c3.858-3.821,3.427-9.533,3.427-14.636V38.7l23.543,1.959V108.365z"/>
	</g>
	<path fill="#1D1D1B" d="M141.937,142.314l-28.253,2.33V73.889l28.253,0.883V142.314z M141.937,67.097l-28.253-1.243V41.442
		l28.253,2.354V67.097z"/>
	<polygon fill="#1D1D1B" points="198.291,138.117 169.753,140.502 169.753,68.82 149.206,67.93 149.206,44.4 218.414,50.177 
		218.414,70.927 198.291,70.056 	"/>
	<polygon fill="#1D1D1B" points="0,2.606 301.917,2.606 301.917,184.395 0,184.395 241.535,154.093 241.535,32.9 	"/>
	<g>
		<path fill="#868686" d="M617.106,131.635c9.796,39.471,43.699,55.361,81.842,55.361c37.612,0,81.052-17.485,81.052-61.184
			c0-19.867-9.27-36.815-27.019-46.352c-15.891-8.213-34.17-11.125-51.385-14.571c-6.889-1.587-20.131-3.442-20.131-12.979
			c0-9.533,10.594-11.655,18.013-11.655c14.036,0,24.104,4.771,29.4,18.276l46.088-14.036C763.842,12.975,733.386,0,701.863,0
			c-18.012,0-37.345,3.442-52.178,13.772c-14.57,10.331-23.31,27.809-23.31,45.558c0,43.172,40.523,52.441,74.69,59.062
			c8.212,1.592,22.252,3.71,22.252,14.838c0,10.067-14.303,11.12-21.455,11.12c-16.157,0-28.343-5.823-33.112-21.985
			L617.106,131.635z M507.186,108.86l14.833-52.713l14.833,52.713H507.186z M556.715,184.348h56.949L556.715,2.648h-58.799
			l-56.415,181.699h45.29l11.125-35.754h48.473L556.715,184.348z M358.333,79.461V44.229h16.156
			c12.716,0,26.484,1.324,26.484,17.486c0,16.948-15.357,17.746-28.073,17.746H358.333z M358.333,118.393h28.341
			c17.482,0,35.494-2.648,49.53-14.039c13.505-10.857,20.126-27.274,20.126-44.497c0-19.6-10.059-37.612-27.014-47.672
			c-15.628-9.01-35.49-9.537-53.238-9.537h-74.162v181.699h56.417V118.393z"/>
	</g>
</g>
</svg>
